# xmcd
#
# Track frame offsets:
#	182
#	13957
#	27425
#	43425
#	54847
#	67217
#	81545
#	92430
#	105995
#	117097
#	134902
#	148652
#	160842
#	173122
#	188117
#	200042
#	216702
#	228415
#
# Disc length: 3206 seconds
#
# Revision: 0
# Processed by: cddbd v1.5.2PL0 Copyright (c) Steve Scherf et al.
# Submitted via: EZCDAudioConverter 1.1.0.1
#
DISCID=150c8412
DTITLE=Various Artist - Country Musics
DYEAR=1900
DGENRE=Country
TTITLE0=The Carpenters - Top Of The World
TTITLE1=Patti Page - Tenessee Waltz
TTITLE2=Peter Paul and Mary -  Puff The Magic Dragon
TTITLE3=Frankie Laine - Rose Rose I Love You 
TTITLE4=Peter Paul and Mary - Johnny Has Gone For A Soldier
TTITLE5=Peter Paul and Mary - In The Early Morning Rain
TTITLE6=Jim Reeves - He'll Have To Go
TTITLE7=Jim Reeves - Danny Boy
TTITLE8=Cascades - Rythm Of The Falling Rain
TTITLE9=Freddie Aguilar - Anak
TTITLE10=Traditional - Greensleeves
TTITLE11=Cliff Richard - Evergreen Tree
TTITLE12=Tammy Wynette - Stand By Your Man
TTITLE13=Jonny Darrell - Green Grass Of Home
TTITLE14=Patsy Cline - Sweet Dreams Of You
TTITLE15=Ray Price - For the Good Times
TTITLE16=Bobby Vinton - Roses Are Red
TTITLE17=Jose Feliciano -  Rain
EXTD=
EXTT0=
EXTT1=
EXTT2=
EXTT3=
EXTT4=
EXTT5=
EXTT6=
EXTT7=
EXTT8=
EXTT9=
EXTT10=
EXTT11=
EXTT12=
EXTT13=
EXTT14=
EXTT15=
EXTT16=
EXTT17=
PLAYORDER=
